Coordinates
nRows=9
nColumns=38

# SIMM Motion File Header:
name Coordinates
datacolumns 38
datarows 9
otherdata 1
range 1.69049999999999990000 1.69849999999999990000

Units are S.I. units (second, meters, Newtons, ...)
Angles are in degrees.

endheader
time	pelvis_tilt	pelvis_list	pelvis_rotation	pelvis_tx	pelvis_ty	pelvis_tz	hip_flexion_r	hip_adduction_r	hip_rotation_r	knee_angle_r	ankle_angle_r	subtalar_angle_r	mtp_angle_r	hip_flexion_l	hip_adduction_l	hip_rotation_l	knee_angle_l	ankle_angle_l	subtalar_angle_l	mtp_angle_l	lumbar_extension	lumbar_bending	lumbar_rotation	arm_flex_r	arm_add_r	arm_rot_r	elbow_flex_r	pro_sup_r	wrist_flex_r	wrist_dev_r	arm_flex_l	arm_add_l	arm_rot_l	elbow_flex_l	pro_sup_l	wrist_flex_l	wrist_dev_l
      1.69049999999999990000	     -3.34840879167455750000	      3.45166365630019540000	      2.26664994346435480000	      1.23631089698308980000	      0.98276593387883959000	     -0.32002529915290645000	    -26.51764861275275500000	      4.00924228019877750000	     13.22937522222902200000	    -43.86917911326887800000	    -19.24047054935591200000	     -0.00000000000010516499	      0.00000000000020573168	     26.76036327316431600000	     10.37807029246113900000	      7.80168992152808460000	     -3.44195984155935890000	     -2.35303256881842860000	      0.00000000000001420618	      0.00000000000007092273	    -13.74091905487338200000	     -3.34219635872453220000	     13.15814898948134200000	    -16.57748070661167700000	    -25.57675169630165300000	      5.75761605263144820000	    136.24683662032336000000	     96.70832121050158000000	     -0.00000000000000152980	     -0.00000000000000483081	    -51.95632343012496800000	    -15.83497040213626400000	    -15.24235333893737000000	    127.88529088574798000000	     94.50933235828078700000	     -0.00000000000000100292	      0.00000000000001846815
      1.69150000000000000000	     -3.29558467342118750000	      3.43956180125440800000	      2.29684017114416680000	      1.23643220672576890000	      0.98243973150258479000	     -0.31994382767009533000	    -26.38849044335959300000	      4.03591696853683230000	     12.98696169723546500000	    -44.48966182391925600000	    -19.18138324902797400000	     -0.00000000000010559422	      0.00000000000020668498	     26.59268806997350900000	     10.36117352151582000000	      7.93632628824305540000	     -3.13941301366974200000	     -2.37024609712992400000	      0.00000000000001423340	      0.00000000000007120643	    -13.81694322243481400000	     -3.33775480596322140000	     13.07906858191164000000	    -16.69756306968951900000	    -25.52861732970783100000	      5.71353708259057400000	    136.01477351225327000000	     96.71128477728136400000	     -0.00000000000000153598	     -0.00000000000000486384	    -51.70642107835672600000	    -15.89560598235996900000	    -15.16903960580016200000	    127.84572251288260000000	     94.50705055526465500000	     -0.00000000000000100471	      0.00000000000001858208
      1.69249999999999990000	     -3.24373553757701140000	      3.42901109938769450000	      2.32542984143232760000	      1.23655113654716860000	      0.98210421516254920000	     -0.31986264083770399000	    -26.25357035351508000000	      4.05669573160157610000	     12.73875601355949500000	    -45.11591469354567600000	    -19.11773692538168500000	     -0.00000000000010602160	      0.00000000000020763744	     26.42997827531942800000	     10.34580267773169700000	      8.06753334196088010000	     -2.85727323006832060000	     -2.38110830204387500000	      0.00000000000001425953	      0.00000000000007149411	    -13.89162117128458200000	     -3.33492395282512580000	     12.99996622817147200000	    -16.81713016678580900000	    -25.47774202266323600000	      5.66890588315754230000	    135.77831627236941000000	     96.71130252362225100000	     -0.00000000000000154200	     -0.00000000000000489703	    -51.45509411714734700000	    -15.95629542429488800000	    -15.09471028213434200000	    127.80436581987351000000	     94.50421628221835100000	     -0.00000000000000100717	      0.00000000000001869601
      1.69350000000000000000	     -3.19279246605718470000	      3.42010920171785800000	      2.35235758116902800000	      1.23666759708549190000	      0.98175970857576877000	     -0.31978164908917461000	    -26.11308851608930900000	      4.07145768507906420000	     12.48524464771579700000	    -45.74772925327743400000	    -19.04927925767599500000	     -0.00000000000010644567	      0.00000000000020859049	     26.27237726874505300000	     10.33209125878673600000	      8.19429849070176180000	     -2.59613543037748280000	     -2.39103343397690300000	      0.00000000000001428700	      0.00000000000007178255	    -13.96503807034228700000	     -3.33383815967933030000	     12.92084814988289700000	    -16.93605945957151300000	    -25.42416719410196900000	      5.62377523299288830000	    135.53745837880820000000	     96.70839888434193200000	     -0.00000000000000154866	     -0.00000000000000492966	    -51.20236509097913600000	    -16.01702872492742800000	    -15.01942236581196100000	    127.76123107351241000000	     94.50075449242176300000	     -0.00000000000000101028	      0.00000000000001880977
      1.69449999999999990000	     -3.14255783269794400000	      3.41286680389245900000	      2.37751479654851660000	      1.23678162578770980000	      0.98140658190403651000	     -0.31970065707278367000	    -25.96740299697288600000	      4.08017363235978440000	     12.22702220444886500000	    -46.38483708853316800000	    -18.97582669742692800000	     -0.00000000000010687236	      0.00000000000020954450	     26.11987654438936300000	     10.32007807941322500000	      8.31602697277725160000	     -2.35668375983505520000	     -2.40038020812795370000	      0.00000000000001431775	      0.00000000000007206866	    -14.03740119814618300000	     -3.33453920667819230000	     12.84178356807855300000	    -17.05424308877216400000	    -25.36796843936420800000	      5.57817880472142850000	    135.29224147467534000000	     96.70258232567648800000	     -0.00000000000000155476	     -0.00000000000000496149	    -50.94826958127965400000	    -16.07778317852061900000	    -14.94322502156207100000	    127.71635983011647000000	     94.49658759084091700000	     -0.00000000000000101341	      0.00000000000001892330
      1.69550000000000000000	     -3.09287972644255140000	      3.40728298733306150000	      2.40080800082054410000	      1.23689323998199250000	      0.98104512947611022000	     -0.31961949553176400000	    -25.81681751464102300000	      4.08283621053708060000	     11.96467236543676500000	    -47.02698067420049500000	    -18.89721365476836800000	     -0.00000000000010730187	      0.00000000000021049902	     25.97252210040682400000	     10.30979894391165500000	      8.43213339073229130000	     -2.13959025279796890000	     -2.40956233802303600000	      0.00000000000001435120	      0.00000000000007235562	    -14.10886618633835500000	     -3.33705420492252310000	     12.76283288438008300000	    -17.17158565421154400000	    -25.30921917478212200000	      5.53214866851133810000	    135.04270417237379000000	     96.69387730594337400000	     -0.00000000000000156004	     -0.00000000000000499357	    -50.69284511783851600000	    -16.13853558110184100000	    -14.86616433970500700000	    127.66978581234244000000	     94.49163657045660600000	     -0.00000000000000101714	      0.00000000000001903670
      1.69649999999999990000	     -3.04362737817591670000	      3.40335370233260590000	      2.42215267993317560000	      1.23700244573829090000	      0.98067561026839167000	     -0.31953801456651093000	    -25.66161059529449800000	      4.07944907699769120000	     11.69876806721991400000	    -47.67390600692343800000	    -18.81329634761067700000	     -0.00000000000010772952	      0.00000000000021145265	     25.83038105035847600000	     10.30129159741342800000	      8.54204414944442010000	     -1.94550030197840650000	     -2.41899305474213700000	      0.00000000000001439187	      0.00000000000007263970	    -14.17956505926178000000	     -3.34140466790633140000	     12.68405025613396500000	    -17.28799920889543500000	    -25.24799173826421100000	      5.48571514706982020000	    134.78888398382156000000	     96.68232131877428500000	     -0.00000000000000156563	     -0.00000000000000502807	    -50.43612905495299300000	    -16.19926246948729100000	    -14.78828395204871900000	    127.62153834213348000000	     94.48582060615009900000	     -0.00000000000000102063	      0.00000000000001914966
      1.69750000000000000000	     -2.99468211317959600000	      3.40107445477309690000	      2.44147374168729710000	      1.23710924078850760000	      0.98029826268825015000	     -0.31945608495891065000	    -25.50204642214679400000	      4.07002450274604750000	     11.42986865424975000000	    -48.32535930773227800000	    -18.72395472384068800000	     -0.00000000000010815919	      0.00000000000021240567	     25.69352863649090300000	     10.29459761450952000000	      8.64520242605056670000	     -1.77502363885584090000	     -2.42906840308898530000	      0.00000000000001443229	      0.00000000000007292026	    -14.24961676099607100000	     -3.34760882024015370000	     12.60548207188075900000	    -17.40340134116149800000	    -25.18435769766191600000	      5.43890683673499530000	    134.53081799006091000000	     96.66796348373506500000	     -0.00000000000000157155	     -0.00000000000000506143	    -50.17815777409425900000	    -16.25994016733337900000	    -14.70962533597694700000	    127.57164364657196000000	     94.47905740709168800000	     -0.00000000000000102421	      0.00000000000001926304
      1.69849999999999990000	     -2.94593427329151900000	      3.40044175035887490000	      2.45870576307563480000	      1.23721361549181920000	      0.97991330956411227000	     -0.31937359915111241000	    -25.33837825320584300000	      4.05458192305910890000	     11.15851776250358400000	    -48.98108643454601500000	    -18.62909290950023000000	     -0.00000000000010858866	      0.00000000000021335896	     25.56204272111935800000	     10.28976315213992600000	      8.74107240430604550000	     -1.62872730063835780000	     -2.44015692088897480000	      0.00000000000001446952	      0.00000000000007320349	    -14.31913091523945300000	     -3.35568288301759310000	     12.52716622394685900000	    -17.51771429872779300000	    -25.11838785817091900000	      5.39175065745697070000	    134.26854290708511000000	     96.65086369545545600000	     -0.00000000000000157849	     -0.00000000000000509423	    -49.91896640341931900000	    -16.32054473067910300000	    -14.63022797358605400000	    127.52012531836121000000	     94.47126385581134400000	     -0.00000000000000102843	      0.00000000000001937637
